Coordinates
version=1
nRows=19
nColumns=33
inDegrees=yes

Units are S.I. units (second, meters, Newtons, ...)
Angles are in degrees.

endheader
time	ground_thorax_rot_x	ground_thorax_rot_y	ground_thorax_rot_z	ground_thorax_tx	ground_thorax_ty	ground_thorax_tz	clav_prot_r	clav_elev_r	scapula_abduction_r	scapula_elevation_r	scapula_upward_rot_r	scapula_winging_r	shoulder_elv_r	plane_of_elev_r	axial_rot_r	elbow_flexion_r	pro_sup_r	wrist_flex_r	wrist_dev_r	clav_prot_l	clav_elev_l	scapula_abduction_l	scapula_elevation_l	scapula_upward_rot_l	scapula_winging_l	shoulder_elv_l	plane_of_elev_l	axial_rot_l	elbow_flexion_l	pro_sup_l	wrist_flex_l	wrist_dev_l	
3.8400	37.764341	12.733097	15.255600	-220.507512	843.572054	6.634409	14.581904	37.659155	37.836688	45.000000	-45.000000	1350.697777	-2987.879784	149.177743	-109.836503	745.313412	162.933211	12.457021	4.719154	10.857988	-45.000000	-37.955858	45.000000	-44.999434	-1698.592673	-641.658658	19.172819	-49.523197	1822.065343	142.421472	-3.278297	-12.703252	
3.8500	37.759055	12.844380	15.266123	-220.734788	843.012703	6.447739	14.633393	37.634310	37.737946	45.000000	-45.000000	1350.774079	-2987.887418	149.188304	-110.005050	745.389715	162.908025	12.426769	4.790976	10.751498	-45.000000	-37.877946	45.000000	-44.998985	-1698.573925	-641.675893	19.068446	-50.158223	1822.113911	142.887965	-3.301823	-12.740447	
3.8600	37.754424	12.958817	15.289014	-220.848160	842.421968	6.277033	14.686100	37.617283	37.661951	45.000000	-45.000000	1350.851414	-2987.902960	149.219984	-110.207974	745.460013	162.930412	12.393068	4.888608	10.635974	-45.000000	-37.825142	45.000000	-44.998187	-1698.553732	-641.689467	18.971048	-50.817482	1822.188669	143.390408	-3.348791	-12.799972	
3.8700	37.734690	13.106567	15.357405	-220.715664	841.761901	6.140675	14.684237	37.587919	37.563970	45.000000	-45.000000	1350.935451	-2987.913356	149.227082	-110.405973	745.513746	163.058595	12.366157	4.947351	10.615332	-45.000000	-37.797268	45.000000	-44.996736	-1698.553300	-641.722334	18.891716	-51.319987	1822.252205	143.991700	-3.361585	-12.789859	
3.8800	37.712175	13.262500	15.457783	-220.328573	841.032593	6.038535	14.652193	37.557584	37.483172	45.000000	-45.000000	1351.017359	-2987.931258	149.224514	-110.622856	745.546557	163.288452	12.343891	4.990437	10.643473	-45.000000	-37.780578	45.000000	-44.994198	-1698.574536	-641.766896	18.834415	-51.733356	1822.316941	144.711537	-3.352694	-12.740026	
3.8900	37.687935	13.423935	15.590990	-219.668773	840.232354	5.972036	14.595163	37.526450	37.422613	45.000000	-45.000000	1351.098998	-2987.955043	149.216415	-110.863612	745.558076	163.614450	12.325174	5.024727	10.712745	-45.000000	-37.776021	45.000000	-44.989484	-1698.620258	-641.822455	18.799089	-52.063228	1822.384907	145.571353	-3.324159	-12.654843	
3.9000	37.668223	13.570208	15.742364	-218.758136	839.372825	5.937058	14.540862	37.502904	37.400100	45.000000	-45.000000	1351.171483	-2987.988987	149.198014	-111.130685	745.550503	164.009570	12.309310	5.054312	10.787245	-45.000000	-37.770277	45.000000	-44.981508	-1698.700333	-641.879614	18.784949	-52.332069	1822.457097	146.585578	-3.272353	-12.541503	
3.9100	37.654547	13.693872	15.893881	-217.655777	838.477911	5.928196	14.504903	37.489946	37.411299	45.000000	-45.000000	1351.240337	-2988.025649	149.173972	-111.435027	745.534144	164.434037	12.292201	5.092561	10.848716	-45.000000	-37.777649	45.000000	-44.965912	-1698.820336	-641.933420	18.785883	-52.552751	1822.541041	147.745601	-3.205406	-12.414088	
3.9200	37.648255	13.777673	16.029344	-216.415325	837.573085	5.940071	14.503637	37.491278	37.465871	45.000000	-45.000000	1351.300449	-2988.068472	149.136807	-111.774496	745.511558	164.852147	12.274168	5.130765	10.892030	-45.000000	-37.790855	45.000000	-44.941629	-1698.989544	-641.982210	18.801031	-52.708988	1822.628606	149.045097	-3.117340	-12.268771	
3.9300	37.654509	13.808862	16.093271	-215.182185	836.709232	5.973578	14.535860	37.508598	37.549461	45.000000	-45.000000	1351.376445	-2988.104322	149.087479	-112.193128	745.492029	165.240051	12.250096	5.182445	10.946582	-45.000000	-37.860496	45.000000	-44.887931	-1699.242213	-642.035479	18.825136	-52.749179	1822.725328	150.455542	-3.009616	-12.110221	
3.9400	37.665727	13.797397	16.105327	-213.954269	835.907563	6.022171	14.599810	37.532468	37.654993	45.000000	-45.000000	1351.463773	-2988.131882	149.027264	-112.679933	745.476218	165.579612	12.220962	5.227109	11.021748	-45.000000	-37.981101	45.000000	-44.820213	-1699.551879	-642.093359	18.862567	-52.693743	1822.824179	151.947635	-2.898007	-11.945839	
3.9500	37.675275	13.758159	16.079195	-212.727734	835.190879	6.079739	14.672874	37.555517	37.763748	45.000000	-45.000000	1351.566654	-2988.141881	148.962081	-113.220789	745.467175	165.865693	12.182826	5.267414	11.125380	-45.000000	-38.155884	45.000000	-44.728399	-1699.896110	-642.155719	18.904014	-52.572535	1822.924184	153.485608	-2.789901	-11.780461	
3.9600	37.666565	13.723510	16.092916	-211.379440	834.552949	6.133621	14.737389	37.566570	37.868239	45.000000	-45.000000	1351.667860	-2988.136666	148.904258	-113.758842	745.461372	166.103137	12.135509	5.287760	11.237241	-45.000000	-38.334460	45.000000	-44.635496	-1700.210620	-642.207327	18.939864	-52.478260	1823.017843	155.040363	-2.700589	-11.620008	
3.9700	37.642089	13.694969	16.141833	-209.908991	834.010423	6.178493	14.780641	37.571165	37.960509	45.000000	-45.000000	1351.766372	-2988.112730	148.845668	-114.284731	745.458654	166.314884	12.075053	5.300280	11.350549	-45.000000	-38.514919	45.000000	-44.519216	-1700.487645	-642.247718	18.959900	-52.440956	1823.102708	156.596805	-2.619693	-11.460949	
3.9800	37.592320	13.704449	16.280458	-208.213406	833.547839	6.204159	14.800774	37.563695	38.030220	45.000000	-45.000000	1351.847141	-2988.071920	148.793689	-114.758567	745.461630	166.525721	12.001880	5.291653	11.439566	-45.000000	-38.663770	45.000000	-44.406392	-1700.683686	-642.260031	18.960912	-52.534086	1823.179577	158.150676	-2.560265	-11.305002	
3.9900	37.530899	13.734138	16.476526	-206.321272	833.168370	6.209643	14.803909	37.558531	38.088052	45.000000	-45.000000	1351.906903	-2988.019727	148.731085	-115.189642	745.467177	166.770301	11.915756	5.274711	11.498413	-45.000000	-38.783816	45.000000	-44.282089	-1700.816020	-642.252788	18.942597	-52.748739	1823.248127	159.720842	-2.504054	-11.144046	
4.0000	37.471924	13.762651	16.694353	-204.246937	832.860341	6.195604	14.824869	37.567603	38.153528	45.000000	-45.000000	1351.938219	-2987.973045	148.645931	-115.578447	745.471959	167.083095	11.820936	5.243871	11.522682	-45.000000	-38.878976	45.000000	-44.124892	-1700.897277	-642.239058	18.911727	-53.075700	1823.308247	161.352381	-2.450583	-10.974998	
4.0100	37.437477	13.755905	16.865129	-202.092812	832.622476	6.170289	14.875866	37.601397	38.245148	45.000000	-45.000000	1351.950418	-2987.940742	148.519515	-115.971589	745.467491	167.500464	11.721285	5.207545	11.535611	-45.000000	-38.977243	45.000000	-43.911035	-1700.976542	-642.244001	18.878131	-53.457160	1823.355527	163.086859	-2.382162	-10.791955	
4.0200	37.423097	13.730769	17.005653	-199.834674	832.417723	6.136883	14.966082	37.652164	38.360175	45.000000	-45.000000	1351.950799	-2987.928746	148.370933	-116.362686	745.455274	168.043030	11.620340	5.157893	11.537422	-45.000000	-39.078066	45.000000	-43.645332	-1701.056116	-642.263845	18.840354	-53.894066	1823.393981	164.944082	-2.314568	-10.598222	
